<svg xmlns="http://www.w3.org/2000/svg" viewBox="0 0 600 600" preserveAspectRatio="xMidYMid slice">
  <g fill="#1a1714">
    <path d="M120 80 C 160 60, 220 70, 240 120 C 260 170, 220 210, 170 205 C 120 200, 80 170, 90 130 C 95 105, 105 90, 120 80 Z"/>
    <path d="M380 60 C 430 55, 470 90, 465 140 C 460 180, 420 200, 380 185 C 345 172, 335 130, 350 100 C 358 82, 370 68, 380 60 Z"/>
    <path d="M80 320 C 130 310, 180 340, 175 390 C 170 435, 120 455, 80 435 C 45 418, 35 370, 55 345 C 63 335, 72 326, 80 320 Z"/>
    <path d="M300 280 Q 340 240, 390 270 Q 440 305, 420 360 Q 395 415, 340 405 Q 290 395, 280 345 Q 275 310, 300 280 Z"/>
    <path d="M480 400 C 520 390, 555 420, 550 465 C 545 505, 510 525, 475 515 C 445 507, 430 475, 445 445 C 455 425, 467 410, 480 400 Z"/>
    <path d="M180 480 C 220 470, 265 490, 270 530 C 273 560, 245 585, 210 580 C 175 575, 155 545, 165 515 C 170 500, 175 488, 180 480 Z"/>
    <!-- Small coffee cup silhouette -->
    <path d="M220 200 Q 225 190, 250 190 L 290 190 Q 315 190, 320 200 L 320 225 Q 318 245, 290 248 L 250 248 Q 222 245, 220 225 Z M 320 200 Q 340 200, 340 215 Q 340 230, 320 230 Z"/>
  </g>
</svg>
